# xmcd
#
# Track frame offsets:
#	150
#	17371
#	39206
#	56612
#	73803
#	95359
#	113333
#	135445
#	150642
#	167498
#	184640
#	198574
#
# Disc length: 2943 seconds
#
# Revision: 0
# Processed by: cddbd v1.4PL0 Copyright (c) Steve Scherf et al.
# Submitted via: dBpowerAMP V4.0
#
DISCID=8b0b7d0c
DTITLE=Burton Gaar - Home of the Blues
DYEAR=2003
DGENRE=Blues
TTITLE0=Home of the Blues
TTITLE1=Blow Wind Blow
TTITLE2=Repoman
TTITLE3=Hole In My Heart
TTITLE4=Hall Of Fame
TTITLE5=Stone Cold Blues
TTITLE6=Rainbow
TTITLE7=My Little Feel Good
TTITLE8=I Wonder
TTITLE9=Mississippi Water
TTITLE10=Wonderland
TTITLE11=Still Singing The Blues
EXTD=
EXTT0=
EXTT1=
EXTT2=
EXTT3=
EXTT4=
EXTT5=
EXTT6=
EXTT7=
EXTT8=
EXTT9=
EXTT10=
EXTT11=
PLAYORDER=
